<?xml version="1.0" standalone="no"?>
<!DOCTYPE svg PUBLIC "-//W3C//DTD SVG 20010904//EN"
 "http://www.w3.org/TR/2001/REC-SVG-20010904/DTD/svg10.dtd">
<svg version="1.0" xmlns="http://www.w3.org/2000/svg"
 width="200.000000pt" height="200.000000pt" viewBox="0 0 200.000000 200.000000"
 preserveAspectRatio="xMidYMid meet">
<metadata>
Created by potrace 1.14, written by Peter Selinger 2001-2017
</metadata>
<g transform="translate(0.000000,200.000000) scale(0.100000,-0.100000)"
fill="#000000" stroke="none">
<path d="M1370 1884 c0 -13 102 -162 126 -184 l27 -25 -7 30 c-14 61 -56 132
-94 159 -37 26 -52 31 -52 20z"/>
<path d="M519 1850 c-40 -32 -74 -95 -82 -150 l-6 -35 30 35 c46 54 120 180
106 180 -7 0 -29 -13 -48 -30z"/>
<path d="M1515 1763 c7 -21 20 -69 28 -107 l16 -69 -71 74 c-50 53 -68 67 -63
49 13 -43 32 -75 77 -125 24 -26 50 -56 59 -66 9 -11 19 -19 22 -19 4 0 5 45
3 101 -4 90 -7 105 -32 146 -38 60 -57 68 -39 16z"/>
<path d="M403 1738 c-25 -38 -28 -50 -30 -152 l-3 -110 28 30 c73 81 132 173
132 206 0 11 -67 -61 -107 -116 l-23 -30 6 44 c4 24 14 72 24 107 9 35 13 63
9 63 -5 0 -21 -19 -36 -42z"/>
<path d="M930 1694 c-47 -20 -231 -72 -289 -81 -25 -4 -69 -7 -98 -7 -49 -1
-52 -2 -57 -31 -2 -16 -3 -95 -2 -175 5 -221 55 -386 160 -535 75 -104 233
-229 318 -250 47 -12 187 72 280 168 155 160 230 375 231 660 0 81 -2 149 -4
151 -2 2 -33 7 -69 10 -57 5 -109 13 -185 30 -11 2 -70 20 -131 40 -61 20
-113 36 -115 36 -2 -1 -20 -8 -39 -16z"/>
<path d="M321 1618 c-25 -78 -29 -161 -11 -230 6 -21 15 -57 21 -80 l11 -41
54 109 c29 60 57 125 60 144 l7 35 -38 -45 c-21 -25 -46 -64 -56 -87 -10 -24
-20 -43 -21 -43 -2 0 -4 26 -4 58 -2 109 -6 212 -9 212 -2 0 -8 -15 -14 -32z"/>
<path d="M1609 1578 c-1 -40 -1 -92 -1 -115 0 -49 -11 -55 -27 -15 -6 15 -30
48 -52 72 -40 44 -40 44 -34 15 4 -16 32 -81 63 -143 61 -124 56 -123 82 -15
21 94 7 273 -22 273 -4 0 -9 -33 -9 -72z"/>
<path d="M1672 1375 c-6 -27 -22 -88 -35 -135 l-24 -84 -8 44 c-4 25 -9 50
-10 55 -6 25 -64 129 -65 115 0 -21 27 -170 40 -220 6 -23 12 -60 12 -83 0
-38 1 -40 15 -21 9 10 31 52 51 93 31 64 37 87 40 161 5 111 -1 140 -16 75z"/>
<path d="M271 1313 c1 -38 6 -86 11 -108 9 -39 88 -189 95 -181 3 2 6 21 9 42
2 22 11 75 19 119 8 44 17 105 20 135 6 55 6 55 -10 26 -26 -49 -55 -146 -56
-190 0 -38 -2 -36 -19 29 -37 141 -54 195 -63 195 -5 0 -7 -30 -6 -67z"/>
<path d="M415 1118 c-11 -85 -12 -150 -4 -186 4 -19 6 -32 4 -30 -3 3 -123
184 -142 214 -10 16 -11 11 -7 -26 9 -78 49 -149 125 -223 70 -66 96 -78 80
-34 -5 13 -12 59 -16 102 -4 44 -8 91 -10 105 -2 14 -7 48 -11 75 -3 28 -8 52
-9 53 -2 2 -6 -20 -10 -50z"/>
<path d="M1520 1145 c-1 -11 -3 -29 -5 -40 -2 -11 -7 -49 -10 -85 -9 -103 -15
-153 -21 -182 -3 -16 -2 -28 3 -28 14 0 123 111 149 151 24 38 54 129 54 163
0 13 -11 1 -33 -35 -18 -30 -48 -77 -67 -105 -19 -28 -40 -60 -47 -70 -9 -15
-10 -11 -1 20 11 42 4 170 -12 208 -8 21 -9 21 -10 3z"/>
<path d="M1454 943 c-8 -21 -18 -45 -23 -53 -4 -8 -14 -40 -21 -70 -7 -30 -23
-79 -36 -109 -29 -64 -28 -61 -5 -56 124 24 235 117 266 225 6 23 4 22 -27
-11 -30 -32 -178 -145 -178 -135 0 2 7 23 15 46 16 46 20 65 30 148 7 61 0 67
-21 15z"/>
<path d="M486 928 c10 -85 27 -154 45 -190 22 -44 21 -46 -12 -17 -13 12 -44
35 -69 51 -25 17 -64 49 -88 72 -42 40 -43 40 -31 11 51 -118 126 -184 233
-204 42 -8 46 -7 41 8 -4 9 -25 70 -47 136 -57 170 -82 216 -72 133z"/>
<path d="M590 782 c0 -28 53 -126 82 -155 18 -17 29 -28 23 -25 -5 3 -41 9
-80 13 -38 4 -94 15 -124 26 l-54 19 24 -27 c54 -59 99 -83 154 -83 50 0 152
24 168 40 5 4 -7 16 -26 27 -19 11 -62 54 -97 94 -35 41 -64 76 -66 78 -2 2
-4 -1 -4 -7z"/>
<path d="M1296 712 c-36 -44 -79 -85 -96 -92 -16 -7 -30 -16 -30 -20 0 -12
131 -44 176 -43 49 1 90 21 137 68 44 44 49 65 9 36 -16 -11 -60 -25 -98 -31
-38 -6 -82 -13 -97 -15 l-28 -5 33 39 c30 35 74 129 64 138 -2 2 -33 -32 -70
-75z"/>
<path d="M1056 593 c-2 -3 -48 -4 -101 -4 -93 1 -101 -1 -181 -38 -91 -43
-140 -54 -186 -40 l-31 8 23 -24 c48 -51 150 -57 213 -13 18 12 34 25 37 28
26 29 77 60 98 60 l27 -1 -30 -21 c-36 -27 -125 -118 -125 -129 0 -28 29 -10
92 56 41 41 82 75 92 75 11 0 51 -33 91 -75 61 -64 74 -73 84 -61 10 12 5 22
-26 53 -21 21 -56 52 -78 70 -38 31 -39 32 -15 33 15 0 51 -20 89 -50 91 -71
140 -81 217 -45 33 15 74 55 56 55 -6 0 -14 -5 -18 -11 -13 -21 -116 -4 -185
31 -60 31 -133 53 -143 43z"/>
<path d="M280 383 c-12 -3 -14 -22 -12 -113 3 -99 5 -110 21 -110 16 0 19 8
17 68 -1 53 2 67 14 67 9 0 17 -15 21 -40 13 -73 26 -95 55 -95 25 0 26 2 13
18 -8 9 -20 28 -26 42 -24 52 -25 70 -4 96 37 47 28 57 -54 66 -16 2 -37 2
-45 1z m64 -19 c19 -7 21 -28 3 -43 -19 -15 -50 9 -41 32 7 18 14 20 38 11z"/>
<path d="M553 364 c-23 -23 -27 -39 -23 -104 4 -68 49 -114 94 -97 41 16 68
124 46 182 -16 42 -83 53 -117 19z m78 -16 c16 -30 6 -146 -15 -166 -14 -15
-17 -14 -31 3 -14 19 -19 55 -18 123 1 57 41 83 64 40z"/>
<path d="M723 382 c-18 -3 -23 -10 -23 -30 l0 -27 20 25 c10 14 22 21 27 17
12 -12 12 -180 0 -195 -8 -10 -3 -12 19 -10 l29 2 -3 94 c-4 105 4 126 37 91
l21 -23 0 27 c0 21 -5 27 -22 28 -13 0 -36 1 -53 2 -16 1 -40 1 -52 -1z"/>
<path d="M990 373 c-31 -22 -24 -57 20 -108 43 -49 50 -79 23 -89 -18 -7 -33
9 -33 36 0 27 -16 29 -28 4 -9 -20 -7 -27 7 -40 37 -33 112 -8 106 36 -4 32
-16 58 -26 58 -14 0 -58 72 -52 86 8 20 31 17 45 -6 18 -28 30 -25 26 7 -3 22
-8 27 -36 28 -18 1 -41 -5 -52 -12z"/>
<path d="M444 273 c1 -93 3 -108 18 -111 15 -3 17 8 15 95 0 54 2 104 7 111 5
8 0 12 -17 12 -24 0 -24 0 -23 -107z"/>
<path d="M1559 339 c-14 -20 -15 -38 -10 -93 7 -69 18 -86 55 -86 19 0 19 1
-2 20 -30 28 -32 110 -3 110 11 0 23 5 26 10 3 6 -5 10 -19 10 -19 0 -25 6
-28 27 l-3 27 -16 -25z"/>
<path d="M1496 304 c-23 -16 -40 -19 -31 -4 3 6 -4 10 -17 10 -22 0 -23 -2
-20 -76 3 -64 6 -75 20 -72 14 3 16 13 14 49 -2 33 2 50 14 59 13 12 17 11 24
0 12 -20 22 -7 18 23 -3 24 -5 24 -22 11z"/>
<path d="M1115 203 c0 -100 1 -103 22 -103 19 0 22 4 17 29 -5 23 -2 30 15 36
31 10 61 54 61 90 0 42 -15 53 -70 53 l-45 -1 0 -104z m78 33 c-6 -33 -20 -56
-34 -56 -14 0 -11 94 3 108 19 19 38 -13 31 -52z"/>
<path d="M1286 294 c-38 -37 -7 -134 42 -134 46 0 77 81 48 125 -19 29 -66 34
-90 9z m64 -54 c0 -44 -21 -84 -33 -63 -24 42 -11 128 18 117 10 -4 15 -20 15
-54z"/>
<path d="M1657 295 c-21 -20 -11 -48 24 -69 31 -18 38 -40 15 -49 -17 -7 -39
16 -28 28 4 4 0 6 -8 3 -27 -8 -23 -37 5 -44 72 -18 103 48 39 85 -36 22 -38
41 -3 41 11 0 19 -7 19 -16 0 -8 5 -12 10 -9 6 3 10 15 10 26 0 15 -7 19 -34
19 -19 0 -41 -7 -49 -15z"/>
</g>
</svg>
